<svg xmlns="http://www.w3.org/2000/svg" viewBox="0 0 384 260"><defs><style>.cls-1{stroke:#000;stroke-linecap:round;stroke-linejoin:round;stroke-width:2px;}</style></defs><title>Asset 1</title><g id="Layer_2" data-name="Layer 2"><g id="Layer_1-2" data-name="Layer 1"><path d="M10,67V10H76.45a85.66,85.66,0,0,1,35.16,7.24,85.45,85.45,0,0,1,28.7,19.39,89.6,89.6,0,0,1,19.39,99,98.19,98.19,0,0,1-19.39,29A89.09,89.09,0,0,1,76.45,191H12V146h9v36H77.32A79.26,79.26,0,0,0,109,175.64a82.18,82.18,0,0,0,43.47-43.47,79.3,79.3,0,0,0,6.36-31.67,79.32,79.32,0,0,0-6.36-31.67A82.18,82.18,0,0,0,109,25.36,79.32,79.32,0,0,0,77.32,19H68.26A48.25,48.25,0,0,0,49.4,22.72,48.91,48.91,0,0,0,19.24,67Z"/><path d="M20,67V10L10,20H60.82c6.68,0,13.41-.2,20.08.11a79.09,79.09,0,0,1,49.33,20.67c29.29,27.2,35,70.89,13,104.41a79.1,79.1,0,0,1-42.74,32.25C90.2,180.56,79.95,181,69.36,181H12l10,10V146L12,156h9L11,146v36a10.15,10.15,0,0,0,10,10H66.79c7.93,0,15.76.1,23.64-1a91.59,91.59,0,0,0,47.35-21.87c27.35-23.76,38.31-64,26.18-98.24A92.84,92.84,0,0,0,84.33,9.28C69.28,8.05,53.62,8.9,40.06,16.13,21.17,26.19,10.13,45.93,9.24,67l10-10H10C-2.87,57-2.89,77,10,77h9.24a10.19,10.19,0,0,0,10-10A39.5,39.5,0,0,1,50.15,33.4c9-4.82,19-4.59,28.94-4.38,29.29.62,56.34,20.18,65.85,48a72.4,72.4,0,0,1-22.56,79,70.07,70.07,0,0,1-38.91,15.72c-5.67.4-11.4.22-17.08.22H21l10,10V146a10.15,10.15,0,0,0-10-10H12A10.15,10.15,0,0,0,2,146v45a10.15,10.15,0,0,0,10,10H66.57c11.16,0,22.16-.15,33.14-2.67a97.78,97.78,0,0,0,53.29-33c28.42-34.92,32.29-85.18,5.6-122.43A103.75,103.75,0,0,0,108.77,5.39C96.52,1,83.68,0,70.77,0H10A10.15,10.15,0,0,0,0,10V67C0,79.87,20,79.89,20,67Z"/><path d="M290.68,155H277.26l-51-92.49a9,9,0,0,0-3.88-4A11.6,11.6,0,0,0,216.75,57a10.18,10.18,0,0,0-7.63,3.26A11,11,0,0,0,206,68.24V192h-9V11h10.58ZM374,11V192h-9V69.25a11,11,0,0,0-3.13-7.9,10.21,10.21,0,0,0-7.63-3.24,10.42,10.42,0,0,0-9.5,5.44L329.74,91h-10.5l44.51-80H374Z"/><path d="M290.68,145H277.26l8.63,5q-25.05-45.43-50.11-90.87c-2.07-3.74-4.54-7.06-8.36-9.25a21.17,21.17,0,0,0-28.68,7.74c-3.4,6-2.75,13-2.75,19.56V192l10-10h-9l10,10V11L197,21h10.58l-8.63-5,72.8,126.16L282,160c6.43,11.14,23.72,1.08,17.27-10.09L226.51,23.79,216.22,6a10.06,10.06,0,0,0-8.63-5H197a10.15,10.15,0,0,0-10,10V192a10.15,10.15,0,0,0,10,10h9a10.15,10.15,0,0,0,10-10V88.33c0-6.12,0-12.24,0-18.36,0-2.77,1-3.7,2.45-.91,8,15.56,16.94,30.72,25.4,46.05L268.63,160a10,10,0,0,0,8.63,5h13.42C303.55,165,303.57,145,290.68,145Z"/><path d="M364,11V192l10-10h-9l10,10V78.44c0-2.95.1-5.92,0-8.86-.44-13.22-11.33-23.4-24.77-21-10.48,1.85-14.5,10.66-19,19L321.11,86l8.63-5h-10.5l8.63,15,38.95-70,5.56-10-8.63,5H374c12.87,0,12.89-20,0-20H363.75a10,10,0,0,0-8.63,5L316.17,76,310.6,86c-3.67,6.59.93,15,8.63,15h10.5a10,10,0,0,0,8.63-5l7.74-14.16,4.83-8.83c.7-1.29,1.42-3.54,2.46-4.58,1.41-1.41,1.6.86,1.59,2.51,0,3.68,0,7.36,0,11V192a10.15,10.15,0,0,0,10,10h9a10.15,10.15,0,0,0,10-10V11C384-1.87,364-1.89,364,11Z"/><rect class="cls-1" x="10" y="235" width="364" height="24"/></g></g></svg>